<?xml version="1.0" encoding="utf-8"?>
<!-- Generator: Adobe Illustrator 26.4.1, SVG Export Plug-In . SVG Version: 6.00 Build 0)  -->
<svg version="1.1" id="Capa_1" xmlns="http://www.w3.org/2000/svg" xmlns:xlink="http://www.w3.org/1999/xlink" x="0px" y="0px"
	 viewBox="0 0 425.2 425.2" style="enable-background:new 0 0 425.2 425.2;" xml:space="preserve">
<style type="text/css">
	.st0{fill:#5A5C5F;}
</style>
<g>
	<path class="st0" d="M188.8,309.2c-2.1-1.7-4.2-3.3-6.2-5c-0.7-0.6-1.3-1.1-2-1.7c-1.3-1.1-2.6-2.2-3.9-3.4
		c-0.8-0.7-1.5-1.4-2.3-2.1c-1.1-1-2.2-2-3.2-3c-0.8-0.8-1.5-1.5-2.3-2.3c-1-1-2-2-2.9-2.9c-0.8-0.8-1.5-1.6-2.2-2.4
		c-0.9-1-1.8-1.9-2.6-2.9c-0.7-0.8-1.4-1.7-2.1-2.5c-0.8-0.9-1.6-1.9-2.4-2.8c-0.7-0.8-1.4-1.7-2-2.5c-0.7-0.9-1.5-1.9-2.2-2.8
		c-0.7-0.9-1.3-1.7-1.9-2.6c-0.7-0.9-1.4-1.9-2.1-2.8c-0.6-0.9-1.2-1.7-1.8-2.6c-0.6-0.9-1.3-1.9-1.9-2.8c-0.6-0.9-1.1-1.8-1.7-2.6
		c-0.6-0.9-1.2-1.9-1.8-2.8c-0.5-0.9-1.1-1.8-1.6-2.7c-0.5-0.9-1.1-1.8-1.6-2.8c-0.5-0.9-1-1.8-1.5-2.7c-0.5-0.9-1-1.8-1.5-2.7
		c-0.5-0.9-0.9-1.8-1.4-2.7c-0.5-0.9-0.9-1.8-1.3-2.7c-0.4-0.9-0.8-1.8-1.2-2.7c-0.4-0.9-0.8-1.8-1.2-2.7c-0.4-0.9-0.8-1.8-1.1-2.7
		c-0.4-0.9-0.7-1.8-1.1-2.7c-0.4-0.9-0.7-1.8-1-2.7c-0.3-0.9-0.7-1.8-1-2.7c-0.3-0.9-0.6-1.8-0.9-2.7c-0.3-0.9-0.6-1.8-0.9-2.7
		c-0.3-0.9-0.6-1.8-0.8-2.7c-0.3-0.9-0.5-1.8-0.8-2.7c-0.3-0.9-0.5-1.8-0.7-2.7c-0.2-0.9-0.5-1.8-0.7-2.7c-0.2-0.9-0.4-1.8-0.6-2.7
		c-0.2-0.9-0.4-1.8-0.6-2.7c-0.2-0.9-0.4-1.8-0.5-2.7c-0.2-0.9-0.3-1.8-0.5-2.7c-0.2-0.9-0.3-1.8-0.4-2.6c-0.1-0.9-0.3-1.8-0.4-2.6
		c-0.1-0.9-0.3-1.7-0.4-2.6c-0.1-0.9-0.2-1.7-0.3-2.6c-0.1-0.9-0.2-1.7-0.3-2.6c-0.1-0.9-0.2-1.7-0.3-2.6c-0.1-0.9-0.1-1.7-0.2-2.6
		c-0.1-0.9-0.1-1.7-0.2-2.6c-0.1-0.8-0.1-1.7-0.1-2.5c0-0.9-0.1-1.7-0.1-2.6c0-0.8-0.1-1.6-0.1-2.5c0-0.8,0-1.7,0-2.5
		c0-0.8,0-1.6,0-2.4c0-0.8,0-1.7,0-2.5c0-0.8,0-1.6,0-2.4c0-0.8,0-1.7,0.1-2.5c0-0.8,0.1-1.5,0.1-2.3c0-0.8,0.1-1.6,0.1-2.5
		c0-0.7,0.1-1.5,0.1-2.2c0.1-0.8,0.1-1.6,0.2-2.4c0.1-0.7,0.1-1.4,0.2-2.1c0-0.3,0-0.5,0.1-0.8c-19.8-11.4-42.7-21.2-68.2-29.2
		c-0.1,12.9,1.2,45.5,15.2,81C79.3,234.7,113.4,284.3,188.8,309.2z"/>
	<path class="st0" d="M56.4,201.7c-15-1.1-31-1-47.8,0.3c3.9,10.2,14.1,33.5,33.3,56.5c34,40.7,78.7,61.3,132.8,61.3
		c5.1,0,10.2-0.2,15.5-0.6C110.2,294.4,73.3,242.9,56.4,201.7z"/>
	<path class="st0" d="M368.8,201.7c-0.1,0.3-0.2,0.5-0.3,0.8c-0.2,0.6-0.5,1.2-0.8,1.8c-0.3,0.8-0.7,1.6-1,2.3
		c-0.3,0.6-0.5,1.2-0.8,1.8c-0.4,0.8-0.7,1.6-1.1,2.4c-0.3,0.6-0.6,1.2-0.9,1.8c-0.4,0.8-0.8,1.6-1.2,2.5c-0.3,0.6-0.6,1.2-0.9,1.8
		c-0.4,0.9-0.9,1.7-1.4,2.6c-0.3,0.6-0.6,1.1-0.9,1.7c-0.5,1-1.1,1.9-1.6,2.9c-0.3,0.5-0.5,0.9-0.8,1.4c-0.7,1.2-1.5,2.5-2.2,3.7
		c-0.1,0.2-0.2,0.4-0.3,0.6c-0.9,1.5-1.8,2.9-2.8,4.4c-0.2,0.3-0.4,0.5-0.5,0.8c-0.8,1.2-1.6,2.4-2.4,3.5c-0.3,0.5-0.7,0.9-1,1.4
		c-0.7,1-1.4,2-2.1,2.9c-0.4,0.5-0.8,1.1-1.2,1.6c-0.7,0.9-1.4,1.8-2.1,2.8c-0.4,0.6-0.9,1.1-1.3,1.7c-0.7,0.9-1.4,1.8-2.1,2.7
		c-0.5,0.6-0.9,1.1-1.4,1.7c-0.7,0.9-1.5,1.7-2.2,2.6c-0.5,0.6-1,1.1-1.5,1.7c-0.8,0.9-1.6,1.7-2.3,2.6c-0.5,0.6-1,1.1-1.5,1.7
		c-0.8,0.9-1.7,1.8-2.5,2.6c-0.5,0.5-1,1.1-1.5,1.6c-0.9,0.9-1.9,1.8-2.8,2.7c-0.5,0.5-1,0.9-1.5,1.4c-1.1,1-2.2,2-3.3,3
		c-0.4,0.4-0.8,0.7-1.2,1.1c-3.1,2.7-6.3,5.4-9.7,8c-0.4,0.3-0.8,0.6-1.2,0.9c-1.3,1-2.6,2-3.9,2.9c-0.6,0.4-1.2,0.9-1.8,1.3
		c-1.2,0.8-2.3,1.7-3.5,2.5c-0.7,0.5-1.4,0.9-2.1,1.4c-1.2,0.8-2.3,1.5-3.5,2.3c-0.8,0.5-1.5,1-2.3,1.4c-1.2,0.7-2.3,1.4-3.5,2.1
		c-0.8,0.5-1.6,1-2.5,1.4c-1.2,0.7-2.4,1.4-3.6,2c-0.9,0.5-1.7,0.9-2.6,1.4c-1.3,0.7-2.5,1.3-3.8,2c-0.9,0.4-1.8,0.9-2.7,1.3
		c-1.3,0.6-2.7,1.3-4,1.9c-0.9,0.4-1.8,0.8-2.7,1.2c-1.4,0.7-2.9,1.3-4.4,1.9c-0.9,0.4-1.7,0.7-2.6,1.1c-1.7,0.7-3.4,1.4-5.2,2.1
		c-0.7,0.3-1.3,0.5-2,0.8c-2.5,0.9-5,1.8-7.5,2.7c-0.3,0.1-0.7,0.2-1,0.3c-2.1,0.7-4.2,1.4-6.3,2.1c5.3,0.4,10.4,0.6,15.5,0.6
		c113.6,0,157-94.1,166.1-117.8C399.8,200.7,383.8,200.6,368.8,201.7z"/>
	<path class="st0" d="M193.2,300.9c-0.6-0.8-1.1-1.6-1.6-2.5c-0.7-1-1.3-2-1.9-3c-0.9-1.4-1.8-2.8-2.7-4.3c-0.6-0.9-1.2-1.9-1.7-2.8
		c-0.9-1.5-1.8-3-2.7-4.6c-0.5-0.8-0.9-1.6-1.4-2.4c-1.1-1.9-2.1-3.8-3.1-5.7c-0.2-0.4-0.4-0.8-0.6-1.2c-1.2-2.3-2.3-4.7-3.4-7
		c-0.2-0.5-0.5-1-0.7-1.6c-0.8-1.8-1.6-3.6-2.4-5.3c-0.3-0.8-0.6-1.6-1-2.3c-0.6-1.5-1.2-3-1.8-4.5c-0.3-0.9-0.7-1.7-1-2.6
		c-0.5-1.4-1-2.8-1.5-4.2c-0.3-0.9-0.6-1.8-0.9-2.7c-0.5-1.4-0.9-2.7-1.3-4.1c-0.3-0.9-0.6-1.8-0.8-2.6c-0.4-1.4-0.8-2.7-1.2-4.1
		c-0.2-0.9-0.5-1.7-0.7-2.6c-0.4-1.4-0.7-2.7-1-4.1c-0.2-0.8-0.4-1.6-0.6-2.5c-0.3-1.4-0.6-2.9-0.9-4.3c-0.2-0.7-0.3-1.5-0.5-2.2
		c-0.3-1.6-0.6-3.2-0.9-4.8c-0.1-0.5-0.2-1.1-0.3-1.6c-0.7-4.3-1.2-8.5-1.6-12.6c0-0.5-0.1-1-0.1-1.6c-0.1-1.5-0.3-3.1-0.3-4.6
		c0-0.7-0.1-1.4-0.1-2.1c-0.1-1.3-0.1-2.7-0.2-4c0-0.8,0-1.5,0-2.3c0-1.2,0-2.5,0-3.7c0-0.8,0-1.5,0-2.3c0-1.2,0-2.4,0.1-3.6
		c0-0.8,0.1-1.5,0.1-2.3c0-1.2,0.1-2.4,0.2-3.5c0-0.7,0.1-1.5,0.1-2.2c0.1-1.2,0.2-2.4,0.3-3.5c0.1-0.7,0.1-1.4,0.2-2.1
		c0.1-1.2,0.3-2.4,0.4-3.6c0.1-0.6,0.1-1.2,0.2-1.9c0.2-1.4,0.4-2.8,0.6-4.1c0.1-0.4,0.1-0.8,0.2-1.2c0.3-1.8,0.6-3.6,0.9-5.3
		c0.1-0.3,0.1-0.6,0.2-1c0.3-1.4,0.5-2.8,0.8-4.2c0.1-0.6,0.3-1.2,0.4-1.8c0.2-1.1,0.5-2.2,0.7-3.2c0.2-0.7,0.3-1.3,0.5-2
		c0.2-1,0.5-1.9,0.7-2.9c0.2-0.7,0.4-1.4,0.5-2.1c0.2-0.9,0.5-1.8,0.8-2.7c0.2-0.7,0.4-1.4,0.6-2c0.3-0.9,0.5-1.8,0.8-2.6
		c0.2-0.7,0.4-1.3,0.6-2c0.1-0.3,0.2-0.7,0.3-1c-8.3-7.8-17.4-15.4-27.1-22.8c-3.1,8.2-8.6,25.3-11,47.2
		C121.2,187.2,129.6,249.8,193.2,300.9z"/>
	<path class="st0" d="M259,119.3c0.3,0.7,0.5,1.4,0.8,2.2c0.4,1.2,0.9,2.4,1.3,3.5c0.4,1.2,0.8,2.4,1.2,3.5c0.4,1.2,0.8,2.3,1.1,3.5
		c0.4,1.2,0.7,2.3,1.1,3.5c0.3,1.1,0.7,2.3,1,3.4c0.3,1.1,0.6,2.3,0.9,3.4c0.3,1.1,0.6,2.2,0.9,3.4c0.3,1.1,0.6,2.3,0.8,3.4
		c0.3,1.1,0.5,2.2,0.8,3.3c0.2,1.1,0.5,2.2,0.7,3.3c0.2,1.1,0.4,2.2,0.7,3.2c0.2,1.1,0.4,2.2,0.6,3.3c0.2,1.1,0.4,2.1,0.5,3.2
		c0.2,1.1,0.3,2.1,0.5,3.2c0.1,1,0.3,2.1,0.4,3.1c0.1,1.1,0.3,2.1,0.4,3.2c0.1,1,0.2,2,0.3,3c0.1,1,0.2,2.1,0.3,3.1
		c0.1,1,0.2,2,0.2,2.9c0.1,1,0.1,2,0.2,3.1c0,1,0.1,1.9,0.1,2.9c0,1,0,2,0.1,3c0,0.9,0,1.9,0,2.8c0,1,0,2,0,2.9c0,0.9,0,1.8,0,2.8
		c0,1-0.1,1.9-0.1,2.9c0,0.9-0.1,1.8-0.1,2.7c-0.1,1-0.1,1.9-0.2,2.8c-0.1,0.9-0.1,1.7-0.2,2.6c-0.1,0.9-0.2,1.9-0.3,2.8
		c-0.1,0.8-0.2,1.7-0.3,2.5c-0.1,0.9-0.2,1.8-0.4,2.7c-0.1,0.8-0.2,1.6-0.3,2.5c-0.1,0.9-0.3,1.8-0.4,2.7c-0.1,0.8-0.3,1.6-0.4,2.4
		c-0.2,0.9-0.3,1.8-0.5,2.6c-0.2,0.8-0.3,1.6-0.5,2.3c-0.2,0.9-0.4,1.7-0.6,2.6c-0.2,0.7-0.3,1.5-0.5,2.2c-0.2,0.9-0.4,1.7-0.7,2.5
		c-0.2,0.7-0.4,1.5-0.6,2.2c-0.2,0.8-0.5,1.6-0.7,2.4c-0.2,0.7-0.4,1.4-0.6,2.1c-0.2,0.8-0.5,1.6-0.8,2.4c-0.2,0.7-0.4,1.4-0.7,2
		c-0.3,0.8-0.6,1.6-0.8,2.4c-0.2,0.6-0.5,1.3-0.7,1.9c-0.3,0.8-0.6,1.5-0.9,2.3c-0.2,0.6-0.5,1.3-0.7,1.9c-0.3,0.8-0.6,1.5-0.9,2.3
		c-0.2,0.6-0.5,1.2-0.7,1.8c-0.3,0.8-0.7,1.5-1,2.2c-0.3,0.6-0.5,1.1-0.8,1.7c-0.3,0.7-0.7,1.5-1,2.2c-0.3,0.5-0.5,1.1-0.8,1.6
		c-0.4,0.7-0.7,1.5-1.1,2.2c-0.2,0.5-0.5,1-0.7,1.5c-0.4,0.8-0.8,1.5-1.2,2.2c-0.2,0.4-0.5,0.9-0.7,1.3c-0.4,0.8-0.9,1.6-1.3,2.3
		c-0.2,0.4-0.4,0.7-0.6,1.1c-0.6,1.1-1.3,2.2-1.9,3.3c48.2-48,54.5-103.2,50-143.9c-2.4-21.9-7.9-39-11-47.2
		C277.5,102.6,267.8,110.9,259,119.3z"/>
	<path class="st0" d="M216.1,312.8c18.5-17.8,75.7-84.5,33.2-193c-9-22.9-21.9-46.4-38.5-70.1c-7.6,9.6-25.4,34.1-36.9,68
		C157.9,165,153.1,235.1,216.1,312.8z"/>
	<path class="st0" d="M236.3,309.3c61.1-19.9,103.1-58.1,125.1-113.6c14.1-35.6,15.4-68.2,15.2-81c-25.5,8-48.4,17.8-68.2,29.2
		C313,191.4,303.2,256.5,236.3,309.3z"/>
</g>
</svg>
